<?xml version="1.0" encoding="iso-8859-1"?>
<!-- Generator: Adobe Illustrator 17.1.0, SVG Export Plug-In . SVG Version: 6.00 Build 0)  -->
<!DOCTYPE svg PUBLIC "-//W3C//DTD SVG 1.1//EN" "http://www.w3.org/Graphics/SVG/1.1/DTD/svg11.dtd">
<svg version="1.1" id="Capa_1" xmlns="http://www.w3.org/2000/svg" xmlns:xlink="http://www.w3.org/1999/xlink" x="0px" y="0px"
	 viewBox="0 0 300.861 300.861" style="enable-background:new 0 0 300.861 300.861;" xml:space="preserve">
<g>
	<path d="M237.04,195.302h-38c-5.514,0-10,4.486-10,10v2c0,5.514,4.486,10,10,10h38c5.514,0,10-4.486,10-10v-2
		C247.04,199.789,242.554,195.302,237.04,195.302z"/>
	<path d="M259.104,135.311c7.753-12.033,16.094-28.702,14.846-52.057c-1.014-18.942-9.034-36.729-22.584-50.086
		c-13.727-13.531-31.641-20.983-50.441-20.983c-28.001,0-48.233,22.072-59.102,33.931c-1.528,1.667-3.301,3.601-4.618,4.898
		c-1.061-1.123-2.405-2.654-3.577-3.989c-9.93-11.309-30.59-34.84-60.47-34.84c-18.8,0-36.713,7.452-50.44,20.983
		C9.165,46.525,1.144,64.313,0.13,83.256c-1.01,18.899,3.82,35.341,15.662,53.309c9.393,14.255,33.99,42.081,59.814,67.668
		c31.556,31.266,52.266,47.118,61.554,47.118c2.176,0,5.263-0.578,10.743-3.725c14.187,24.512,40.681,41.05,70.982,41.05
		c45.201,0,81.975-36.773,81.975-81.975C300.861,176.109,284.005,149.395,259.104,135.311z M218.886,258.675
		c-28.659,0-51.975-23.315-51.975-51.975c0-28.659,23.315-51.975,51.975-51.975s51.975,23.316,51.975,51.975
		C270.861,235.36,247.545,258.675,218.886,258.675z"/>
</g>
<g>
</g>
<g>
</g>
<g>
</g>
<g>
</g>
<g>
</g>
<g>
</g>
<g>
</g>
<g>
</g>
<g>
</g>
<g>
</g>
<g>
</g>
<g>
</g>
<g>
</g>
<g>
</g>
<g>
</g>
</svg>
